<svg width="249" height="290" viewBox="0 0 249 290" fill="none" xmlns="http://www.w3.org/2000/svg">
<path fill-rule="evenodd" clip-rule="evenodd" d="M82.217 289.037C51.7774 286.435 29.0876 257.497 14.4967 230.644C1.34323 206.437 -5.14674 175.162 6.86462 150.358C18.0674 127.225 60.3299 135.397 71.7684 112.379C86.1015 83.536 51.9304 42.8405 72.5769 18.1245C91.1193 -4.07268 131.599 -3.55086 156.84 10.5391C181.755 24.4468 176.971 62.3287 193.477 85.6121C208.241 106.439 240.746 112.968 247.004 137.724C253.498 163.417 242.51 191.937 225.489 212.25C209.371 231.485 180.919 231.126 158.805 242.977C131.89 257.402 112.634 291.636 82.217 289.037Z" fill="#03A9E1"/>
</svg>
